# xmcd
#
# Track frame offsets: 
#        150
#        15782
#        33670
#        60057
#        84742
#        102917
#        123402
#        139670
#        153780
#        170585
#        189082
#
# Disc length: 2722 seconds
#
# Revision: 0
# Processed by: cddbd v1.4PL0 Copyright (c) Steve Scherf et al.
# Submitted via: ExactAudioCopy v0.90b4
#
DISCID=780aa00b
DTITLE=Eddie C. Campbell - Hopes and Dreams
DYEAR=2000
DGENRE=Blues
TTITLE0=Did I Hurt You?
TTITLE1=Hopes and Dreams
TTITLE2=Geese in the Ninny Bow (Hey!)
TTITLE3=You Worry Me
TTITLE4=Cool Cool Mama
TTITLE5=Slow and Easy
TTITLE6=Those Was the Days
TTITLE7=Spend
TTITLE8=I'm Your Santa
TTITLE9=Lost Soul
TTITLE10=Cougar
EXTD=
EXTT0=
EXTT1=
EXTT2=
EXTT3=
EXTT4=
EXTT5=
EXTT6=
EXTT7=
EXTT8=
EXTT9=
EXTT10=
PLAYORDER=
